<svg width="16" height="12" viewBox="0 0 16 12" fill="none" xmlns="http://www.w3.org/2000/svg">
<path fill-rule="evenodd" clip-rule="evenodd" d="M2.05756 1.89794C2.17474 1.51381 2.53194 1.23438 2.95441 1.23438H13.4544C13.8769 1.23438 14.2341 1.51381 14.3513 1.89794L8.20441 5.99583L2.05756 1.89794ZM0.891931 2.16157C0.891826 2.16757 0.891818 2.17357 0.891905 2.17957V9.67188C0.891905 10.811 1.81532 11.7344 2.95441 11.7344H13.4544C14.5935 11.7344 15.5169 10.811 15.5169 9.67188V2.17956M14.3919 3.22292V9.67188C14.3919 10.1896 13.9722 10.6094 13.4544 10.6094H2.95441C2.43664 10.6094 2.01691 10.1896 2.01691 9.67188V3.22292L7.89239 7.1399C8.08133 7.26587 8.32748 7.26587 8.51643 7.1399L14.3919 3.22292ZM15.5169 2.16158C15.5113 1.02723 14.5901 0.109375 13.4544 0.109375H2.95441C1.81875 0.109375 0.897478 1.02723 0.891931 2.16157" fill="#282828"/>
</svg>
